<svg xmlns="http://www.w3.org/2000/svg" width="32" height="33" fill="none"><path stroke="#fff" stroke-linecap="round" stroke-linejoin="round" stroke-width="2" d="m10.667 14.735-4-6.667-4 6.667"/><path stroke="#fff" stroke-linecap="round" stroke-linejoin="round" stroke-width="2" d="M6.667 18.735a4 4 0 0 0 4-4h-8a4 4 0 0 0 4 4Z" clip-rule="evenodd"/><path stroke="#fff" stroke-linecap="round" stroke-linejoin="round" stroke-width="2" d="m29.333 14.735-4-6.667-4 6.667"/><path stroke="#fff" stroke-linecap="round" stroke-linejoin="round" stroke-width="2" d="M25.333 18.735a4 4 0 0 0 4-4h-8a4 4 0 0 0 4 4Z" clip-rule="evenodd"/><path stroke="#fff" stroke-linecap="round" stroke-linejoin="round" stroke-width="2" d="M16 4.068v24M6.667 8.068h18.666M6.667 8.068h18.666M25.333 28.068H6.667"/></svg>