<svg xmlns="http://www.w3.org/2000/svg" width="32" height="32" fill="none"><path stroke="#fff" stroke-linejoin="round" stroke-width="2" d="M12.19 28.78a13.33 13.33 0 0 1-5.798-3.535 4 4 0 0 0-3.455-6.559A13.394 13.394 0 0 1 2.667 16c0-1.394.213-2.737.61-4h.056a4 4 0 0 0 3.59-5.767 13.312 13.312 0 0 1 5.512-3.084 4 4 0 0 0 7.13 0c2.088.578 3.97 1.65 5.512 3.084A4 4 0 0 0 28.723 12a13.33 13.33 0 0 1 .61 4.001c0 .92-.093 1.819-.27 2.686a4 4 0 0 0-3.455 6.559 13.33 13.33 0 0 1-5.797 3.536 4.002 4.002 0 0 0-7.622 0Z"/><path stroke="#fff" stroke-linejoin="round" stroke-width="2" d="M16 20.667a4.667 4.667 0 1 0 0-9.334 4.667 4.667 0 0 0 0 9.334Z"/></svg>