<svg xmlns="http://www.w3.org/2000/svg" width="800" height="800" fill="none"><path fill="#34D399" d="M304.063 478.25s56.187-42.625 140.187-41.063C568.625 439.562 595 498.75 595 498.75l19.938 93.875s37.562 11.125 49.25 12.313c11.75 1.187 34.625 7.312 62.187-12 27.563-19.375 20.5-40.75 34-40.188 17.625.75 5.25 59.812-10 78.625-15.25 18.75-83.312 54.563-112.062 62.188s-37.563 19.625-67.438 20.25c-29.938.562-105-19.625-105-19.625L304 617.938V478.25h.063Z"/><path fill="#5CA389" d="M363.312 601.438s24.625-44 68.625-40.5 59.813 34.625 59.813 34.625l-97.375 31.687-31.063-25.812ZM589.125 658.375c31.062 10 42.812 8.812 42.812 8.812s18.188-19.375 25.813-35.812c7.625-16.438 8.5-25.813 8.5-25.813s-12-2.937-23.188-6.437c-11.125-3.5-33.437-16.437-33.437-16.437l-25.813 70.999 5.313 4.688Z"/><path fill="#34D399" d="M316.375 35.688c91.5 4.374 170.5 85.937 143.438 192.687-20.25 79.75-90.688 185.25-108.25 212.313-32.25 49.874-66.875 146.624 30.187 156.937 138.813 14.687 36.313-61.437 104.188-108.375 35.625-24.625 76.187-16.875 102.312 1.875 34.063 24.5 128.875 287.875-218.187 269.563-72.125-3.813-129.438-43.563-161-73.938-93.438-89.75-21.75-239.375-15.813-252.5 7.875-17.562 81.75-113.5 76.5-144.25-5.25-30.812-30.812-22.875-66-35.188-35.187-12.312-74.25-51.249-63.375-104.687 10.125-49.75 48.5-120.563 176-114.438Z"/><path fill="#E4DDA2" d="M575.938 715.375s16.999-15.375 22.874-20.062c5.875-4.688 33.125-28.125 33.125-28.125s43.313-1.563 73.313-14.063c37.25-15.562 58.937-54.562 61.875-68.312 1.562-7.438-3.813 66.875-57.188 102.937-51.562 34.813-133.999 27.625-133.999 27.625ZM140.812 542.938c-2.062 78.312 61.938 160.812 117.438 183 30.812 12.312-98.563-47.938-88-176.438 8.375-102.188 111.312-189.188 113.5-247.25C285.062 267.062 241.5 264 241.5 264s13.5 10.125 14.062 23.312c.875 21.125-53.687 98.563-65.125 114.375-11.312 15.875-47.812 74.376-49.625 141.251Z"/><path fill="#EE6D33" d="m156.25 187.938 27 29.312c1.313-1.813-29.5 29.438-58.062 50.438-19.125 14.062-78 44.187-81.125 41.187-3.938-3.813 14.25-15.813 24.187-24.625 7.563-6.688 26.375-23.625 26.375-23.625s-23.188 2.5-34.313 2.5c-11.124 0-39.562.875-36.937-4.375 2.063-4.125 43-10.625 58.375-16.875 46.313-18.75 74.5-53.937 74.5-53.937Z"/><path fill="#323234" d="M268 95.063c-16.062 11.187-31.687 8.375-36.75-1-3.75-7-4.812-20.25 10-31.438 13.063-9.875 29.813-6.875 35.938 1.625 5.125 7.188 3 22.375-9.188 30.813ZM343.188 167.937c-19.188 11.25-34.75 5.438-41.375-4.75-5.375-8.312-4.125-28.312 11.437-37.312 16.125-9.375 34-6 40.875 5.187 5.75 9.375 3.688 28.313-10.937 36.875Z"/><path fill="#E4DDA2" d="M416.688 271.812c-11.438 26.563 11.437 38.875 11.437 38.875s8.938-19.062 12.75-27.687c4.688-10.688 9.25-24 9.25-24s-24.312-8.438-33.437 12.812ZM405.25 352.875s-15.812-1.75-29.937-6.625c-12.813-4.438-34.375-22.5-47.5.875C315.688 368.687 336 380.562 352 387.187c14.938 6.188 28.375 8.375 28.375 8.375s10.25-17.187 13.188-22c2.937-4.812 11.687-20.687 11.687-20.687ZM351.563 440.75s-21.125-1.188-34.75-4.688c-11.938-3.062-33.75-17.625-45.75 1.313-10.688 16.875 4.812 30.25 25.5 35.625 22.875 5.937 36.062 4.187 36.062 4.187s5.5-11.187 7.688-17.375c2.312-6.312 11.25-19.062 11.25-19.062ZM318.875 521.062s-25.5 3.5-37.812 3.5c-12.75 0-45-3-44.313 26.688.563 25.5 35.125 23.375 44 23.188 12.625-.313 45.563-6.25 45.563-6.25s-5.625-10.001-7.25-24.001c-1.25-10.25-.188-23.125-.188-23.125ZM344.5 586.5s-4.125 18.563-10.125 32.125c-6.625 14.938-22 40.5 9.25 52.375 28.875 11 40.5-9.687 45.75-33 4.875-21.687 5.25-39.375 5.25-39.375s-15.25-.687-27.875-3.562c-10.125-2.438-22.25-8.563-22.25-8.563ZM442.625 595.437s20.688 18.063 27.25 27.25c6.625 9.25 21.688 37.126 45.75 25.063 21.125-10.562 4.063-42.812-6.187-54.562-8.563-9.813-21.563-20.5-33.876-27.563-8.25-4.687-15.249-5.875-15.249-5.875s1.437 12.875-2.376 22c-4 9.813-15.312 13.687-15.312 13.687ZM469.937 534.562c2.125 7.25 8.438 7.563 22.438 1.75 14.937-6.187 35.187-9.25 51.937-9.25 19.813 0 39.125 13.188 46.188 18.938 7.062 5.75 15.562 7.75 16.875-3.25 1.312-11-6.625-23.313-22-34.313-9.375-6.687-26.125-17-45.875-17.437-21.063-.438-40.5 7.062-52.813 14.937-7.625 4.938-20.312 16.75-16.75 28.625Z"/><path fill="#A35D17" d="M369.4 579c-11.2 11.2-28.8 11.2-39.2 0-11.2-11.2-11.2-28.8 0-39.2l200-200c11.2-11.2 28.8-11.2 39.2 0 11.2 11.2 11.2 28.8 0 39.2l-200 200Z"/><path fill="#6B400C" d="M569.4 339.8c11.2 11.2 11.2 28.8 0 39.2l-200 200c-11.2 11.2-28.8 11.2-39.2 0"/><path fill="#F4AD31" d="M698.2 414.2c-33.6 33.6-69.6 15.2-103.2-18.4l-82.4-82.4c-33.6-33.6-51.2-69.6-18.4-103.2l14.4-14.4c33.6-33.6 69.6-15.2 103.2 18.4l82.4 82.4c33.6 33.6 51.2 69.6 18.4 103.2l-14.4 14.4Z"/><path fill="#DD820A" d="m611.8 215 82.4 82.4c33.6 33.6 51.2 69.6 18.4 103.2L698.2 415c-33.6 33.6-69.6 15.2-103.2-18.4"/><path fill="#F4AD31" d="M476.6 268.6c-6.4 6.4-16.8 6.4-23.2 0-6.4-6.4-6.4-16.8 0-23.2L543 155c6.4-6.4 16.8-6.4 23.2 0 6.4 6.4 6.4 16.8 0 23.2l-89.6 90.4Z"/><path fill="#DD820A" d="M566.2 155c6.4 6.4 6.4 16.8 0 23.2l-89.6 90.4c-6.4 6.4-16.8 6.4-23.2 0"/><path fill="#F4AD31" d="M663.8 455.8c-6.4 6.4-16.8 6.4-23.2 0-6.4-6.4-6.4-16.8 0-23.2l89.6-89.6c6.4-6.4 16.8-6.4 23.2 0 6.4 6.4 6.4 16.8 0 23.2l-89.6 89.6Z"/><path fill="#DD820A" d="M754.2 343c6.4 6.4 6.4 16.8 0 23.2l-90.4 89.6c-6.4 6.4-16.8 6.4-23.2 0M580.6 400.6c-5.6 5.6-15.2 5.6-20.8 0l-50.4-50.4c-5.6-5.6-5.6-15.2 0-20.8 5.6-5.6 15.2-5.6 20.8 0l50.4 50.4c5.6 5.6 5.6 15.2 0 20.8Z"/></svg>